<svg xmlns="http://www.w3.org/2000/svg" width="20" height="21" viewBox="0 0 20 21" fill="none">
<path d="M10.0003 2.1665C5.40866 2.1665 1.66699 5.90817 1.66699 10.4998C1.66699 15.0915 5.40866 18.8332 10.0003 18.8332C14.592 18.8332 18.3337 15.0915 18.3337 10.4998C18.3337 5.90817 14.592 2.1665 10.0003 2.1665ZM13.9837 8.58317L9.25866 13.3082C9.14199 13.4248 8.98366 13.4915 8.81699 13.4915C8.65033 13.4915 8.49199 13.4248 8.37533 13.3082L6.01699 10.9498C5.77533 10.7082 5.77533 10.3082 6.01699 10.0665C6.25866 9.82484 6.65866 9.82484 6.90033 10.0665L8.81699 11.9832L13.1003 7.69984C13.342 7.45817 13.742 7.45817 13.9837 7.69984C14.2253 7.9415 14.2253 8.33317 13.9837 8.58317Z" fill="white"/>
</svg>