<svg width="32" height="32" viewBox="0 0 32 32" fill="none" xmlns="http://www.w3.org/2000/svg">
<path d="M3.16675 16.0001C3.16675 8.92956 8.92956 3.16675 16.0001 3.16675C23.0706 3.16675 28.8334 8.92956 28.8334 16.0001C28.8334 23.0706 23.0706 28.8334 16.0001 28.8334C8.92956 28.8334 3.16675 23.0706 3.16675 16.0001ZM20.8336 20.8336C21.4156 20.2517 21.4156 19.2951 20.8336 18.7132L18.1205 16.0001L20.8336 13.287C21.4156 12.705 21.4156 11.7485 20.8336 11.1665C20.2517 10.5846 19.2951 10.5846 18.7132 11.1665L16.0001 13.8796L13.287 11.1665C12.705 10.5846 11.7485 10.5846 11.1665 11.1665C10.5846 11.7485 10.5846 12.705 11.1665 13.287L13.8796 16.0001L11.1665 18.7132C10.5846 19.2951 10.5846 20.2517 11.1665 20.8336C11.4652 21.1323 11.848 21.2734 12.2267 21.2734C12.6055 21.2734 12.9883 21.1323 13.287 20.8336L16.0001 18.1205L18.7132 20.8336C19.0119 21.1323 19.3946 21.2734 19.7734 21.2734C20.1522 21.2734 20.5349 21.1323 20.8336 20.8336Z" fill="#E60B6A" stroke="#E60B6A"/>
</svg>
