<svg xmlns="http://www.w3.org/2000/svg" width="20" height="20" viewBox="0 0 20 20" fill="none">
<path d="M17.084 8.49102H14.6757C12.7007 8.49102 11.0923 6.88268 11.0923 4.90768V2.49935C11.0923 2.04102 10.7173 1.66602 10.259 1.66602H6.72565C4.15898 1.66602 2.08398 3.33268 2.08398 6.30768V13.691C2.08398 16.666 4.15898 18.3327 6.72565 18.3327H13.2757C15.8423 18.3327 17.9173 16.666 17.9173 13.691V9.32435C17.9173 8.86602 17.5423 8.49102 17.084 8.49102ZM10.234 13.1493L8.56732 14.816C8.50898 14.8744 8.43398 14.9243 8.35898 14.9494C8.28398 14.9827 8.20898 14.9993 8.12565 14.9993C8.04232 14.9993 7.96732 14.9827 7.89232 14.9494C7.82565 14.9243 7.75898 14.8744 7.70898 14.8244C7.70065 14.816 7.69232 14.816 7.69232 14.8077L6.02565 13.141C5.78398 12.8994 5.78398 12.4993 6.02565 12.2577C6.26732 12.016 6.66732 12.016 6.90898 12.2577L7.50065 12.866V9.37435C7.50065 9.03268 7.78398 8.74935 8.12565 8.74935C8.46732 8.74935 8.75065 9.03268 8.75065 9.37435V12.866L9.35065 12.266C9.59232 12.0243 9.99232 12.0243 10.234 12.266C10.4757 12.5077 10.4757 12.9077 10.234 13.1493Z" fill="white"/>
<path d="M14.5241 7.34207C15.3158 7.3504 16.4158 7.3504 17.3574 7.3504C17.8324 7.3504 18.0824 6.79207 17.7491 6.45873C16.5491 5.2504 14.3991 3.0754 13.1658 1.84207C12.8241 1.5004 12.2324 1.73373 12.2324 2.20873V5.11707C12.2324 6.33373 13.2658 7.34207 14.5241 7.34207Z" fill="white"/>
</svg>