<svg xmlns="http://www.w3.org/2000/svg" width="20" height="20" viewBox="0 0 20 20" fill="none">
<path d="M17.5498 9.85L17.4165 9.66667C17.1832 9.38333 16.9082 9.15833 16.5915 8.99167C16.1665 8.75 15.6832 8.625 15.1832 8.625H4.80817C4.30817 8.625 3.83317 8.75 3.39984 8.99167C3.07484 9.16667 2.78317 9.40833 2.54151 9.70833C2.06651 10.3167 1.84151 11.0667 1.91651 11.8167L2.22484 15.7083C2.33317 16.8833 2.47484 18.3333 5.11651 18.3333H14.8832C17.5248 18.3333 17.6582 16.8833 17.7748 15.7L18.0832 11.825C18.1582 11.125 17.9748 10.425 17.5498 9.85ZM11.9915 14.45H7.99984C7.67484 14.45 7.41651 14.1833 7.41651 13.8667C7.41651 13.55 7.67484 13.2833 7.99984 13.2833H11.9915C12.3165 13.2833 12.5748 13.55 12.5748 13.8667C12.5748 14.1917 12.3165 14.45 11.9915 14.45Z" fill="#E60B6A"/>
<path d="M17.1184 7.01867C17.1638 7.40067 16.7467 7.65953 16.3777 7.55062C15.9984 7.43866 15.6019 7.38268 15.1914 7.38268H4.80807C4.3924 7.38268 3.98247 7.44295 3.59512 7.55842C3.23078 7.66704 2.81641 7.41775 2.81641 7.03757V5.54935C2.81641 2.57435 3.72474 1.66602 6.69974 1.66602H7.68307C8.87474 1.66602 9.24974 2.04935 9.73307 2.67435L10.7331 4.00768C10.9414 4.29102 10.9497 4.30768 11.3164 4.30768H13.2997C15.8455 4.30768 16.8754 4.97414 17.1184 7.01867Z" fill="#E60B6A"/>
</svg>