<svg width="22" height="21" viewBox="0 0 22 21" fill="none" xmlns="http://www.w3.org/2000/svg">
<path d="M20.9646 9.76719L16.7459 13.4075L18.0312 18.8516C18.1021 19.1471 18.0838 19.457 17.9787 19.7422C17.8736 20.0273 17.6863 20.2749 17.4405 20.4537C17.1947 20.6325 16.9015 20.7344 16.5978 20.7466C16.2941 20.7588 15.9936 20.6807 15.7343 20.5222L10.9999 17.6084L6.26275 20.5222C6.00347 20.6798 5.70335 20.7571 5.4002 20.7445C5.09704 20.7318 4.8044 20.6298 4.55913 20.4512C4.31386 20.2726 4.12692 20.0254 4.02185 19.7407C3.91679 19.4561 3.89829 19.1467 3.96869 18.8516L5.25869 13.4075L1.03994 9.76719C0.810533 9.56892 0.644621 9.30745 0.562925 9.01545C0.481229 8.72345 0.48737 8.41385 0.580581 8.12531C0.673791 7.83678 0.849941 7.5821 1.08703 7.39308C1.32412 7.20407 1.61164 7.08908 1.91369 7.0625L7.44494 6.61625L9.57869 1.4525C9.69419 1.17108 9.89076 0.930358 10.1434 0.760942C10.3961 0.591526 10.6934 0.501068 10.9976 0.501068C11.3018 0.501068 11.5991 0.591526 11.8518 0.760942C12.1044 0.930358 12.301 1.17108 12.4165 1.4525L14.5493 6.61625L20.0806 7.0625C20.3832 7.0881 20.6716 7.20244 20.9095 7.39119C21.1475 7.57995 21.3244 7.83473 21.4182 8.12361C21.512 8.4125 21.5185 8.72264 21.4368 9.01517C21.3551 9.30771 21.1889 9.56963 20.959 9.76813L20.9646 9.76719Z" fill="#949494"/>
</svg>
