<svg width="89" height="95" viewBox="0 0 89 95" fill="none" xmlns="http://www.w3.org/2000/svg">
<path d="M84.7972 94.9999C85.2778 95.0037 85.7544 94.9118 86.1993 94.7296C86.6441 94.5474 87.0482 94.2786 87.3881 93.9387C87.728 93.5988 87.9968 93.1947 88.179 92.7499C88.3612 92.3051 88.4531 91.8285 88.4493 91.3478V44.1844C88.4577 34.2486 85.0984 24.6032 78.9196 16.8223C78.5303 16.3383 78.0231 15.9625 77.4467 15.731C76.8703 15.4995 76.2441 15.4201 75.6282 15.5003C75.0123 15.5805 74.4273 15.8177 73.9295 16.1891C73.4316 16.5605 73.0376 17.0536 72.7852 17.6212L39.9449 89.8641C39.6908 90.4175 39.5802 91.026 39.6234 91.6333C39.6666 92.2407 39.8621 92.8274 40.192 93.3393C40.5218 93.8511 40.9753 94.2715 41.5106 94.5618C42.0459 94.852 42.6457 95.0027 43.2546 94.9999H84.7972Z" fill="#E60B6A"/>
<path d="M22.5688 9.60361L41.7138 49.8908C42.0025 50.5223 42.4666 51.0575 43.0509 51.4328C43.6351 51.8081 44.3149 52.0076 45.0092 52.0076C45.7036 52.0076 46.3834 51.8081 46.9676 51.4328C47.5518 51.0575 48.016 50.5223 48.3047 49.8908L66.451 9.946C66.8277 9.12531 66.8843 8.19357 66.6099 7.33331C66.3354 6.47304 65.7497 5.74624 64.9674 5.29528C58.7035 1.899 51.7056 0.0822824 44.5807 0.00273023C37.4559 -0.0768219 30.4191 1.58319 24.081 4.83877C23.2653 5.28682 22.6532 6.03158 22.3717 6.91866C22.0902 7.80575 22.1608 8.76716 22.5688 9.60361Z" fill="#E60B6A"/>
<path d="M0.000112342 91.3477C-0.00365351 91.826 0.0872929 92.3002 0.267707 92.7432C0.448121 93.1861 0.714434 93.5889 1.05129 93.9284C1.38814 94.2679 1.78887 94.5374 2.23037 94.7213C2.67188 94.9052 3.14541 94.9998 3.62367 94.9998H28.0185C28.0577 94.6901 28.1245 94.3846 28.2182 94.0868L39.631 68.7504C39.8561 68.2629 39.9727 67.7324 39.9727 67.1954C39.9727 66.6584 39.8561 66.1279 39.631 65.6404L16.1777 16.9078C15.9021 16.3674 15.4962 15.9042 14.9966 15.56C14.4971 15.2158 13.9197 15.0014 13.3165 14.9363C12.7134 14.8712 12.1035 14.9573 11.542 15.1869C10.9805 15.4166 10.4851 15.7825 10.1004 16.2515C3.59323 24.1077 0.0223069 33.9833 0.000112342 44.1844V91.3477Z" fill="#E60B6A"/>
</svg>
